<svg xmlns="http://www.w3.org/2000/svg" viewBox="0 0 512 512"><path d="M82.441 503.322H429.56V0H82.441v503.322z" fill="#7a6857"/><path d="M117.153 503.322h277.695V34.712H117.153v468.61z" fill="#bfa380"/><path d="M325.424 286.373h34.712v-34.712h-34.712v34.712z" fill="#7a6857"/><path d="M325.424 277.695H299.39c-5.207 0-8.678-3.471-8.678-8.678 0-5.207 3.471-8.678 8.678-8.678h26.034c5.207 0 8.678 3.471 8.678 8.678 0 5.207-3.472 8.678-8.678 8.678" fill="#e8edee"/><g fill="#7a6857"><path d="M151.864 147.525h208.271V78.102H151.864v69.423zM273.356 216.949v34.712H151.864v-69.424h208.271v34.712h-86.779zM273.356 321.085v-34.712H151.864v69.424h208.271v-34.712h-86.779zM151.864 459.932h208.271v-69.424H151.864v69.424z"/></g><path d="M490.305 512H21.695c-5.207 0-8.678-3.471-8.678-8.678 0-5.207 3.471-8.678 8.678-8.678h468.61c5.207 0 8.678 3.471 8.678 8.678 0 5.207-3.471 8.678-8.678 8.678" fill="#dbd6d2"/></svg>